<?xml version="1.0" standalone="no"?>
<!DOCTYPE svg PUBLIC "-//W3C//DTD SVG 1.1//EN" "http://www.w3.org/Graphics/SVG/1.1/DTD/svg11.dtd" >
<!--
2013-9-30: Created.
-->
<svg>
<metadata>
Created by iconfont
</metadata>
<defs>

<font id="xin-iconfont" horiz-adv-x="1024" >
  <font-face
    font-family="xin-iconfont"
    font-weight="500"
    font-stretch="normal"
    units-per-em="1024"
    ascent="896"
    descent="-128"
  />
    <missing-glyph />
    
    <glyph glyph-name="shanchu1" unicode="&#58918;" d="M514 781.7c-219.9 0-398.8-178.9-398.8-398.8 0-220 178.9-398.9 398.8-398.9s398.8 178.9 398.8 398.8S733.9 781.7 514 781.7z m168.6-488.2c21.8-21.8 21.8-57.5 0-79.3s-57.5-21.8-79.3 0L514 303.5l-89.3-89.3c-21.8-21.8-57.5-21.8-79.3 0s-21.8 57.5 0 79.3l89.3 89.3-89.3 89.3c-21.8 21.8-21.8 57.5 0 79.3 21.8 21.8 57.5 21.8 79.3 0l89.3-89.3 89.3 89.3c21.8 21.8 57.5 21.8 79.3 0 21.8-21.8 21.8-57.5 0-79.3l-89.3-89.3 89.3-89.3z"  horiz-adv-x="1024" />

    
    <glyph glyph-name="gou" unicode="&#58911;" d="M514 781.7c-219.9 0-398.8-178.9-398.8-398.8 0-220 178.9-398.9 398.8-398.9s398.8 178.9 398.8 398.9c0 219.8-178.9 398.8-398.8 398.8zM460.4 156c-4.3-6.8-14.3-6.7-18.3 0.3-25.6 44.6-106.2 169.6-225.4 207.2l52.6 34.2c50.3 32.7 118.1 18.2 149.5-32.9 22.7-36.9 32.1-73.6 32.1-73.6s120.8 272 288.7 323c0 0-52.4-119.7 24.1-206.1-0.2 0-174.4-48.5-303.3-252.1z"  horiz-adv-x="1024" />

    
    <glyph glyph-name="shijian" unicode="&#58914;" d="M514 781.7c-219.9 0-398.8-178.9-398.8-398.8 0-220 178.9-398.9 398.8-398.9s398.8 178.9 398.8 398.8S733.9 781.7 514 781.7z m81-452.6c0-22.5-18.2-40.7-40.7-40.7h-196c-29.1 0-54.7 21.5-57.6 50.5-3.3 33.3 23.1 61.7 55.8 61.7h126.3V525.2c0 29.1 21.5 54.7 50.5 57.6 33.3 3.3 61.7-23.1 61.7-55.8V329.1z"  horiz-adv-x="1024" />

    
    <glyph glyph-name="bofang" unicode="&#58908;" d="M514 781.7c-219.9 0-398.9-178.9-398.9-398.9 0.1-219.9 179-398.8 398.9-398.8 219.9 0 398.8 178.9 398.8 398.8S733.9 781.7 514 781.7z m173-421.9L437.1 215.5c-17.7-10.2-39.8 2.6-39.8 23V527.1c0 20.4 22.1 33.2 39.8 23L687 405.8c17.7-10.2 17.7-35.8 0-46z"  horiz-adv-x="1024" />

    
    <glyph glyph-name="Group-19" unicode="&#59028;" d="M495.68 384l293.76-264.32a32 32 0 0 0-42.88-47.36l-320 288a32 32 0 0 0 0 47.36l320 288a32 32 0 1 0 42.88-47.36zM256 640a32 32 0 0 0 64 0v-512a32 32 0 0 0-64 0z"  horiz-adv-x="1024" />

    
    <glyph glyph-name="Group-20" unicode="&#59029;" d="M266.56 648.32a32 32 0 0 0 42.88 47.36l320-288a32 32 0 0 0 0-47.36l-320-288a32 32 0 0 0-42.88 47.36L560.32 384zM736 640a32 32 0 0 0 64 0v-512a32 32 0 0 0-64 0z"  horiz-adv-x="1024" />

    
    <glyph glyph-name="Group-1" unicode="&#59010;" d="M693.44 119.68a32 32 0 0 0-42.88-47.36l-320 288a32 32 0 0 0 0 47.36l320 288a32 32 0 1 0 42.88-47.36L399.68 384z"  horiz-adv-x="1024" />

    
    <glyph glyph-name="Group-2" unicode="&#59011;" d="M247.68 202.56a32 32 0 1 0-47.36 42.88l288 320a32 32 0 0 0 47.36 0l288-320a32 32 0 1 0-47.36-42.88L512 496.32z"  horiz-adv-x="1024" />

    
    <glyph glyph-name="Group-3" unicode="&#59012;" d="M330.56 648.32a32 32 0 0 0 42.88 47.36l320-288a32 32 0 0 0 0-47.36l-320-288a32 32 0 0 0-42.88 47.36L624.32 384z"  horiz-adv-x="1024" />

    
    <glyph glyph-name="Group-4" unicode="&#59013;" d="M512 271.68l264.32 293.76a32 32 0 1 0 47.36-42.88l-288-320a32 32 0 0 0-47.36 0l-288 320a32 32 0 0 0 47.36 42.88z"  horiz-adv-x="1024" />

    
    <glyph glyph-name="Group-5" unicode="&#59014;" d="M192 352a32 32 0 0 0 0 64h640a32 32 0 0 0 0-64zM480 704a32 32 0 0 0 64 0v-640a32 32 0 0 0-64 0z"  horiz-adv-x="1024" />

    
    <glyph glyph-name="Group-6" unicode="&#59015;" d="M265.28 585.28a32 32 0 0 0 45.44 45.44l448-448a32 32 0 0 0-45.44-45.44zM713.28 630.72a32 32 0 0 0 45.44-45.44l-448-448a32 32 0 0 0-45.44 45.44z"  horiz-adv-x="1024" />

    
    <glyph glyph-name="Group-7" unicode="&#59016;" d="M809.28 630.72a32 32 0 0 0 45.44-45.44l-448-448a32 32 0 0 0-45.44 0l-224 224a32 32 0 0 0 45.44 45.44l201.28-201.6z"  horiz-adv-x="1024" />

    
    <glyph glyph-name="Group-8" unicode="&#59017;" d="M448 480a32 32 0 0 0-64 0 128 128 0 0 0 256 0 140.16 140.16 0 0 0-58.88-117.12l-10.24-8.96c-20.8-18.24-26.88-27.2-26.88-41.92V288a32 32 0 0 0-64 0v24a110.08 110.08 0 0 0 48.64 90.24l10.24 8.96A80 80 0 0 1 576 480a64 64 0 0 1-128 0zM544 192a32 32 0 1 0-32 32 32 32 0 0 0 32-32M896 384a384 384 0 1 1-384-384 384 384 0 0 1 384 384z m64 0A448 448 0 1 0 512 832a448 448 0 0 0 448-448z"  horiz-adv-x="1024" />

    
    <glyph glyph-name="Group-9" unicode="&#59018;" d="M544 192a32 32 0 1 0-32 32 32 32 0 0 0 32-32M896 384a384 384 0 1 1-384-384 384 384 0 0 1 384 384z m64 0A448 448 0 1 0 512 832a448 448 0 0 0 448-448zM480 608a32 32 0 0 0 64 0v-320a32 32 0 0 0-64 0z"  horiz-adv-x="1024" />

    
    <glyph glyph-name="Group-10" unicode="&#59019;" d="M896 384a384 384 0 1 1-384-384 384 384 0 0 1 384 384z m64 0A448 448 0 1 0 512 832a448 448 0 0 0 448-448zM682.24 535.36a32 32 0 0 0 43.52-46.72l-277.44-256a32 32 0 0 0-43.52 0l-138.56 128a32 32 0 0 0 43.52 46.72l116.8-107.84z"  horiz-adv-x="1024" />

    
    <glyph glyph-name="Group-11" unicode="&#59020;" d="M896 384a384 384 0 1 1-384-384 384 384 0 0 1 384 384z m64 0A448 448 0 1 0 512 832a448 448 0 0 0 448-448zM406.72 233.28a32 32 0 0 0-45.44 45.44l256 256a32 32 0 0 0 45.44-45.44zM361.28 489.28a32 32 0 0 0 45.44 45.44l256-256a32 32 0 0 0-45.44-45.44z"  horiz-adv-x="1024" />

    
    <glyph glyph-name="Group-12" unicode="&#59021;" d="M727.68 497.28L456 224a32 32 0 0 0-22.4-9.28 32 32 0 0 0-22.72 9.28L275.2 361.28a32 32 0 0 0 0 45.44 32 32 0 0 0 45.12 0l113.28-113.28 248.64 248.96a32 32 0 0 0 45.44 0 32 32 0 0 0 0-45.12M512 832a448 448 0 1 1 448-448A448 448 0 0 1 512 832"  horiz-adv-x="1024" />

    
    <glyph glyph-name="Group-13" unicode="&#59022;" d="M896 384a384 384 0 1 1-384-384 384 384 0 0 1 384 384z m64 0A448 448 0 1 0 512 832a448 448 0 0 0 448-448zM608 224a32 32 0 0 0 0-64h-192a32 32 0 0 0 0 64zM480 448h-32a32 32 0 0 0 0 64h64a32 32 0 0 0 32-32v-256a32 32 0 0 0-64 0zM544 576a32 32 0 1 0-32 32 32 32 0 0 0 32-32"  horiz-adv-x="1024" />

    
    <glyph glyph-name="Group-14" unicode="&#59023;" d="M664.96 265.6a32 32 0 0 0-22.4-54.72 32 32 0 0 0-22.72 9.28l-113.28 113.28-112.96-113.28a32 32 0 0 0-22.72-9.28 32 32 0 0 0-22.72 9.28 32 32 0 0 0 0 45.44l113.28 112.96-113.28 113.28a32 32 0 0 0 0 45.12 32 32 0 0 0 45.44 0l112.96-112.96 113.28 112.96a32 32 0 1 0 45.12-45.12l-112.96-113.28zM512 832a448 448 0 1 1 448-448A448 448 0 0 1 512 832z"  horiz-adv-x="1024" />

    
    <glyph glyph-name="Group-15" unicode="&#59024;" d="M608 169.6h-192a32 32 0 0 0 0 64h64v199.36h-16.64a32 32 0 0 0 0 64H512a32 32 0 0 0 32-32v-231.36h64a32 32 0 0 0 0-64M512 599.68a32 32 0 1 0-32-32 32 32 0 0 0 32 32M512 832a448 448 0 1 1 448-448A448 448 0 0 1 512 832"  horiz-adv-x="1024" />

    
    <glyph glyph-name="Group-16" unicode="&#59025;" d="M896 384a384 384 0 1 1-384-384 384 384 0 0 1 384 384z m64 0A448 448 0 1 0 512 832a448 448 0 0 0 448-448zM288 352a32 32 0 0 0 0 64h448a32 32 0 0 0 0-64z"  horiz-adv-x="1024" />

    
    <glyph glyph-name="Group-17" unicode="&#59026;" d="M896 384a384 384 0 1 1-384-384 384 384 0 0 1 384 384z m64 0A448 448 0 1 0 512 832a448 448 0 0 0 448-448zM320 352a32 32 0 0 0 0 64h384a32 32 0 0 0 0-64zM480 576a32 32 0 0 0 64 0v-384a32 32 0 0 0-64 0z"  horiz-adv-x="1024" />

    
    <glyph glyph-name="Group-18" unicode="&#59027;" d="M836.48 400A340.48 340.48 0 1 1 496 59.51999999999998 340.8 340.8 0 0 1 836.48 400z m75.52 0a416 416 0 1 0-416 416 416 416 0 0 0 416-416zM761.28 89.27999999999997a32 32 0 0 0 45.44 45.44l128-128a32 32 0 0 0-45.44-45.44z"  horiz-adv-x="1024" />

    
    <glyph glyph-name="warn" unicode="&#58926;" d="M826.785 697.34c84.159-84.521 128.226-191.074 131.477-320.023-3.251-123.169-46.956-226.472-131.477-309.909-84.521-83.437-191.074-126.781-320.023-130.032-123.169 3.251-226.472 46.595-309.909 130.032s-126.781 186.74-130.032 309.909c3.251 128.948 46.595 235.502 130.032 320.023 83.437 84.159 186.74 128.226 309.909 131.477 128.948-3.251 235.502-47.317 320.023-131.477zM474.255 596.205c-3.251-3.612-4.696-7.946-4.696-13.003l13.364-288.598c0.722-2.528 1.806-4.696 3.251-6.863s3.612-2.89 6.14-2.89h40.454c2.528 0 4.696 1.084 6.14 2.89 1.445 1.806 2.528 3.973 3.251 6.863l13.364 289.682c0 5.057-1.445 9.391-4.696 12.642-3.251 3.251-7.224 4.696-12.642 4.696h-52.013c-4.696 0-8.669-1.806-11.92-5.418zM543.244 159.876c8.308 8.308 12.642 18.782 12.642 31.424 0 12.642-4.334 22.756-12.642 30.702-8.308 7.946-18.421 11.92-30.702 11.92s-22.394-3.973-30.702-11.92c-8.308-7.946-12.642-18.421-12.642-30.702 0-12.642 3.973-23.117 12.642-31.424 8.308-8.308 18.421-12.642 30.702-12.642s22.394 4.334 30.702 12.642z"  horiz-adv-x="1024" />

    
    <glyph glyph-name="empty" unicode="&#58913;" d="M195.948 38.374000000000024l-0.907 0.02c-5.243 0.17-32.496 1.92-50.652 18.94-18.616 17.459-20.838 42.562-21.094 47.421a24.545 24.545 0 0 0-0.036 1.372v136.72c-0.271 5.632-0.635 24.658 5.74 45.788 6.108 20.26 13.654 33.561 15.815 37.15l68.639 121.432c0.343 0.609 0.706 1.198 1.095 1.771 2.14 3.175 13.645 19.518 29.42 29.333 16.599 10.337 36.69 11.136 42.455 11.136h433.572c0.558 0 1.11-0.016 1.68-0.052 4.31-0.276 26.69-2.165 44.01-12.073 16.538-9.472 29.85-26.024 32.349-29.24a27 27 0 0 0 1.428-2.043l81.521-129.177c0.348-0.569 0.701-1.163 1.019-1.772 1.562-3 9.62-18.852 13.701-34.268 4.03-15.252 5.002-32.108 5.15-35.328l0.021-1.1v-136.74c0.092-7.23-1.239-32.042-21.821-50.479-19.492-17.449-45.732-18.8-53.31-18.8H195.948z m-6.984 259.702c-1.5-2.667-6.165-11.49-10.087-24.489-4.142-13.742-3.65-26.588-3.584-28.011a39.5 39.5 0 0 0 0.067-1.849v-136.699l0.051-0.378c0.323-2.458 1.823-8.413 4.409-11.1l0.348-0.37 0.41-0.301c3.62-2.668 12.59-4.199 15.723-4.388l629.483-0.01c5.223 0.061 14.352 1.802 18.489 5.509 3.701 3.318 4.53 9.011 4.53 9.922l-0.05 1.582v136.11c-0.282 5.31-1.311 15.893-3.441 23.91-2.412 9.16-7.808 20.133-8.868 22.232l-0.292 0.512-80 126.781-0.25 0.302c-3.032 3.651-10.302 11.454-16.108 14.782-5.028 2.877-15.268 4.72-20.542 5.212l-0.547 0.026h-432.19c-4.045-0.036-11.56-1.106-15.032-3.277-4.89-3.047-10.68-10.01-13.061-13.261l-0.205-0.282-68.209-120.668-0.737-1.239 0.01 0.031c-0.02-0.061-0.317-0.589-0.317-0.589z m320.614 229.586a26.081 26.081 0 0 0-26.055 26.05V703.576a26.081 26.081 0 0 0 26.045 26.05 26.086 26.086 0 0 0 26.06-26.05v-149.862a26.076 26.076 0 0 0-26.05-26.05z m174.664 0.988a26.086 26.086 0 0 0-26.05 26.056 26.112 26.112 0 0 0 5.82 16.41l59.552 73.446a25.969 25.969 0 0 0 20.26 9.646c6.02 0 11.688-2.012 16.378-5.816a25.836 25.836 0 0 0 9.508-17.531 25.85 25.85 0 0 0-5.668-19.113l-59.55-73.447a25.866 25.866 0 0 0-20.21-9.646h-0.04z m-346.399 1.992a25.871 25.871 0 0 0-20.352 9.81l-58.542 73.441a26.081 26.081 0 0 0 4.132 36.613 25.774 25.774 0 0 0 16.22 5.683c7.987 0 15.416-3.578 20.388-9.815l58.547-73.44a26.076 26.076 0 0 0-4.121-36.609 26.148 26.148 0 0 0-16.23-5.683h-0.042zM510.572 145.55600000000004c-58.04 0-108.468 38.912-122.62 94.613l-1.141 4.49-231.358 0.138a26.107 26.107 0 0 0-26.05 26.071 26.081 26.081 0 0 0 26.05 26.04l254.761-0.163a26.102 26.102 0 0 0 26.036-26.06c0-40.95 32.645-73.022 74.322-73.022 41.528 0 74.06 32.071 74.06 73.021a26.117 26.117 0 0 0 26.05 26.061l252.402 0.159c14.371 0 26.05-11.669 26.06-26.03s-11.668-26.061-26.03-26.082l-229.017-0.138-1.142-4.49c-14.136-55.7-64.456-94.608-122.383-94.608z"  horiz-adv-x="1024" />

    
    <glyph glyph-name="Group-" unicode="&#59039;" d="M768 672a32 32 0 0 0 0 64h32a96 96 0 0 0 96-96v-544a96 96 0 0 0-96-96H224a96 96 0 0 0-96 96V640a96 96 0 0 0 96 96h32a32 32 0 0 0 0-64H224a32 32 0 0 1-32-32v-544a32 32 0 0 1 32-32h576a32 32 0 0 1 32 32V640a32 32 0 0 1-32 32zM320 768a32 32 0 0 0 64 0v-96a32 32 0 0 0-64 0zM640 768a32 32 0 0 0 64 0v-96a32 32 0 0 0-64 0zM448 672a32 32 0 0 0 0 64h128a32 32 0 0 0 0-64zM384 320a32 32 0 0 0 0 64h256a32 32 0 0 0 0-64zM384 480a32 32 0 0 0 0 64h256a32 32 0 0 0 0-64zM384 160a32 32 0 0 0 0 64h256a32 32 0 0 0 0-64z"  horiz-adv-x="1024" />

    
    <glyph glyph-name="huangguan" unicode="&#58946;" d="M958.693177 514.404121c0 30.164397-11.755084 58.529768-33.076074 79.843533a112.059832 112.059832 0 0 1-79.785733 33.083299 112.153757 112.153757 0 0 1-79.857984-33.083299 112.160982 112.160982 0 0 1-33.061624-79.843533c0-30.128272 11.740634-58.464743 33.076074-79.800184 4.414478-4.421703 9.197432-8.308756 14.168235-11.892359-37.916828-37.938503-98.115572-48.580936-147.281732-22.086841-37.411077 20.15054-66.592874 55.148465-77.950583 92.964143-4.920229 22.794892 7.369505 79.265533 8.026981 81.013985 35.026826 19.189614 58.833218 56.420066 58.833218 99.105397 0 30.106597-11.740634 58.435843-33.076074 79.778509a112.081507 112.081507 0 0 1-79.771283 33.076074 112.182657 112.182657 0 0 1-79.857984-33.076074 112.081507 112.081507 0 0 1-33.076074-79.778509 112.204332 112.204332 0 0 1 33.076074-79.872433 112.702858 112.702858 0 0 1 30.214972-21.487166c0.238425-0.4913 0.4335-0.989826 0.693601-1.466676 2.413152-4.486728 12.051309-55.09789 5.982304-77.336457-11.516658-38.198603-41.117505-73.731179-79.027108-94.156269-50.705087-27.288845-111.438482-16.711437-150.113935 22.758767 29.015621 20.446765 48.046285 54.136965 48.046286 92.248868 0 30.207747-11.711734 58.573118-32.989375 79.843533-21.320991 21.335441-49.686361 33.083299-79.857983 33.083299s-58.529768-11.747859-79.857983-33.083299a112.204332 112.204332 0 0 1-33.076075-79.843533 112.132082 112.132082 0 0 1 33.090525-79.800184 112.160982 112.160982 0 0 1 48.47256-28.596571l94.279094-391.327962a43.328357 43.328357 0 0 1 42.136231-33.198899h463.71529a43.335582 43.335582 0 0 1 42.13623 33.198899l94.293544 391.392987c46.991434 13.648035 81.476385 56.998067 81.476385 108.338955z"  horiz-adv-x="1024" />

    
    <glyph glyph-name="haopingxiaolian" unicode="&#59351;" d="M512 832C264.6 832 64 631.4 64 384s200.6-448 448-448 448 200.6 448 448S759.4 832 512 832zM297.4 490.3c0 34.4 27.9 62.3 62.3 62.3s62.3-27.9 62.3-62.3v-0.1c0-34.4-27.9-62.3-62.3-62.3-34.5 0.1-62.3 28-62.3 62.4zM512 117.2c-105.4 0-190.8 85.4-190.8 190.8h381.6c0-105.4-85.4-190.8-190.8-190.8zM664.3 428c-34.4 0-62.3 27.9-62.3 62.3s27.9 62.3 62.3 62.3 62.3-27.9 62.3-62.3-27.9-62.3-62.3-62.3z"  horiz-adv-x="1024" />

    
    <glyph glyph-name="zan1" unicode="&#58958;" d="M671.462828 728.752882c-32.806173 0-66.028832-7.509021-96.076172-21.715581-23.285333-11.009751-44.808532-26.093285-63.154365-44.165896-18.34481 18.072611-39.868009 33.157167-63.154365 44.166919-30.046317 14.205537-63.267952 21.714558-96.075149 21.714558-57.969273 0-111.751177-21.913079-151.439084-61.70434-39.673581-39.775912-61.522192-93.670379-61.522192-151.754263 0-141.074016 119.81176-250.671133 301.168224-416.567487l7.324826-6.699586 63.696718-57.263192 12.478196 11.217483 51.102888 45.937239 7.426133 6.792707c181.367721 165.902494 301.18562 275.504728 301.18562 416.582837 0 58.083883-21.848611 111.977327-61.522192 151.754263C783.214005 706.838779 729.432101 728.752882 671.462828 728.752882L671.462828 728.752882z"  horiz-adv-x="1024" />

    
    <glyph glyph-name="iconfontxingxing" unicode="&#59056;" d="M942.689255 484.770163c-4.743556 14.595558-17.39304 25.298967-32.596745 27.4883l-250.070555 36.367265-111.899275 226.596033c-6.81126 13.74415-20.79867 22.501485-36.124005 22.501485-15.325336 0-29.312745-8.757335-36.124005-22.501485l-111.899275-226.596033-250.070555-36.367265c-15.203706-2.189334-27.853189-12.771113-32.596745-27.4883-4.743556-14.595558-0.729778-30.650671 10.21689-41.35408l180.984915-176.362988L229.939522 17.955577c-2.554223-15.082076 3.648889-30.407412 16.055113-39.408006 12.406224-9.000594 28.826226-10.21689 42.448747-3.040741l223.676921 117.615869 223.676921-117.615869c5.838223-3.040741 12.284594-4.621927 18.730966-4.621927 8.392446 0 16.663262 2.554223 23.717781 7.662668 12.406224 9.000594 18.609336 24.325929 16.055113 39.408006l-42.692006 249.097518 180.984915 176.362988C943.419033 454.119492 947.432811 470.174605 942.689255 484.770163L942.689255 484.770163z"  horiz-adv-x="1024" />

    
    <glyph glyph-name="zuanshi" unicode="&#58954;" d="M976.39444 495.098906l-164.60007 314.822381a43.357257 43.357257 0 0 1-38.415354 23.264517H240.708276a43.357257 43.357257 0 0 1-38.415353-23.264517L37.692853 495.098906a43.350032 43.350032 0 0 1 5.845029-48.70376l430.935441-490.411684a43.350032 43.350032 0 0 1 65.126197 0l430.935441 490.411684a43.350032 43.350032 0 0 1 5.859479 48.70376z m-184.194285-20.56959L539.216595 194.314711a43.335582 43.335582 0 0 0-64.345897 0L221.872688 474.529316a43.350032 43.350032 0 1 0 64.360347 58.096268l220.810611-244.573654 220.810612 244.573654a43.350032 43.350032 0 1 0 64.345897-58.096268z"  horiz-adv-x="1024" />

    
    <glyph glyph-name="setting" unicode="&#58905;" d="M965.824 490.048a180.48 180.48 0 0 0-117.12 85.376 174.464 174.464 0 0 0-16 142.08 22.208 22.208 0 0 1-7.04 23.552 480.576 480.576 0 0 1-153.6 89.216 23.104 23.104 0 0 1-24.32-5.76 182.208 182.208 0 0 0-135.68-57.92 182.208 182.208 0 0 0-133.12 56.64 23.104 23.104 0 0 1-26.88 7.04 478.656 478.656 0 0 1-153.6-89.856 22.208 22.208 0 0 1-7.04-23.552 174.464 174.464 0 0 0-16-141.44A180.48 180.48 0 0 0 58.24 490.048a22.4 22.4 0 0 1-17.28-17.792 455.08 455.08 0 0 1 0-176.512 22.4 22.4 0 0 1 17.28-17.792 180.48 180.48 0 0 0 117.12-84.736c25.408-42.944 31.232-94.592 16-142.08a22.208 22.208 0 0 1 7.04-23.552A480.576 480.576 0 0 1 352-61.63199999999995h7.68a23.04 23.04 0 0 1 16.64 7.04 184.128 184.128 0 0 0 266.944 0c6.592-8.96 18.752-11.968 28.8-7.04a479.36 479.36 0 0 1 156.16 88.576 22.208 22.208 0 0 1 7.04 23.552 174.464 174.464 0 0 0 13.44 142.72 180.48 180.48 0 0 0 117.12 84.736 22.4 22.4 0 0 1 17.28 17.792 452.613 452.613 0 0 1 0 176.512 23.04 23.04 0 0 1-17.28 17.792z m-42.88-169.408a218.752 218.752 0 0 1-128-98.112 211.904 211.904 0 0 1-21.76-156.736 415.936 415.936 0 0 0-112-63.68 217.472 217.472 0 0 1-149.12 63.68 221.312 221.312 0 0 1-149.12-63.68 414.592 414.592 0 0 0-112 63.68c12.8 53.12 4.288 109.12-23.68 156.096A218.752 218.752 0 0 1 101.12 320.64a386.176 386.176 0 0 0 0 127.36 218.752 218.752 0 0 1 128 98.112c27.2 47.552 34.944 103.68 21.76 156.8a415.296 415.296 0 0 0 112 63.68A221.44 221.44 0 0 1 512 708.608a218.24 218.24 0 0 1 149.12 57.984 413.952 413.952 0 0 0 112-63.744 211.904 211.904 0 0 1 23.04-156.096 218.752 218.752 0 0 1 128-98.112 386.65 386.65 0 0 0 0-127.36l-1.28-0.64zM512 575.424c-105.984 0-192-85.568-192-191.104a191.552 191.552 0 0 1 192-191.104c106.112 0 192.064 85.568 192.064 191.104a190.72 190.72 0 0 1-56.256 135.168 192.448 192.448 0 0 1-135.744 55.936z m0-318.528c-70.656 0-128 57.088-128 127.424 0 70.4 57.344 127.36 128 127.36 70.72 0 128-56.96 128-127.36 0-33.792-13.44-66.176-37.44-90.112a128.32 128.32 0 0 0-90.496-37.312z"  horiz-adv-x="1024" />

    
    <glyph glyph-name="cry" unicode="&#58910;" d="M512 832c247.136 0 448-200.864 448-448S759.136-64 512-64 64 136.86400000000003 64 384 264.864 832 512 832z m0-832c211.968 0 384 172.032 384 384S723.968 768 512 768 128 595.9680000000001 128 384s172.032-384 384-384z m96 480a64 64 0 1 0 128 0 64 64 0 0 0-128 0z m-320 0a64 64 0 1 0 128 0 64 64 0 0 0-128 0z m407.68-323.2c-17.184-11.2-40.32-5.984-51.52 11.2A155.904 155.904 0 0 1 512 240.38400000000001c-53.76 0-103.04-26.88-132.16-72.448-11.2-17.152-34.336-22.4-51.52-11.2a37.408 37.408 0 0 0-11.2 51.52A229.44 229.44 0 0 0 512 315.072a229.44 229.44 0 0 0 194.88-106.784c11.2-17.152 5.984-40.32-11.2-51.52z"  horiz-adv-x="1024" />

    
    <glyph glyph-name="play" unicode="&#58915;" d="M512-64C264.576-64 64 136.57600000000002 64 384S264.576 832 512 832s448-200.576 448-448-200.576-448-448-448z m0 64c212.064 0 384 171.936 384 384S724.064 768 512 768 128 596.0640000000001 128 384s171.936-384 384-384z m-57.408 128.768A31.68 31.68 0 0 0 416 159.64800000000002V608.3199999999999a31.552 31.552 0 0 0 46.176 28.128 31.328 31.328 0 0 0 8.928-6.272l223.68-223.904a31.936 31.936 0 0 0 0-44.928l-223.68-223.936a31.392 31.392 0 0 0-16.512-8.672z m24.704 403.616v-297.088L627.68 383.84000000000003 479.296 532.384z"  horiz-adv-x="1024" />

    
    <glyph glyph-name="smile" unicode="&#58916;" d="M512 832c247.136 0 448-200.864 448-448S759.136-64 512-64 64 136.86400000000003 64 384 264.864 832 512 832z m0-832c211.968 0 384 172.032 384 384S723.968 768 512 768 128 595.9680000000001 128 384s172.032-384 384-384z m96 480a64 64 0 1 0 128 0 64 64 0 0 0-128 0z m-320 0a64 64 0 1 0 128 0 64 64 0 0 0-128 0z m407.68-170.848c17.184-11.2 22.4-34.336 11.2-51.52A229.44 229.44 0 0 0 512 150.84799999999996a229.44 229.44 0 0 0-194.88 106.784 37.408 37.408 0 0 0 11.2 51.52 37.408 37.408 0 0 0 51.52-11.2A155.904 155.904 0 0 1 512 225.53599999999994c53.76 0 103.04 26.88 132.16 72.416 11.2 17.184 34.336 22.4 51.52 11.2z"  horiz-adv-x="1024" />

    
    <glyph glyph-name="compass" unicode="&#58917;" d="M512-64C264.576-64 64 136.57600000000002 64 384S264.576 832 512 832s448-200.576 448-448-200.576-448-448-448z m0 64c212.064 0 384 171.936 384 384S724.064 768 512 768 128 596.0640000000001 128 384s171.936-384 384-384zM444.128 451.872l-67.904-203.648 203.648 67.904 45.28-45.28L285.728 157.76l113.12 339.424 45.28-45.28z m0 0l-45.28 45.28L738.272 610.24l-113.12-339.424-45.28 45.28 67.904 203.648-203.648-67.904zM480 384a32 32 0 1 1 64 0 32 32 0 1 1-64 0z"  horiz-adv-x="1024" />

    
    <glyph glyph-name="time" unicode="&#58921;" d="M543.744 401.408l152.576-88.064c15.36-8.704 20.48-28.16 11.776-43.52-8.704-15.36-28.672-20.48-43.52-11.776l-166.4 96.256c-3.072 2.048-6.144 4.096-8.192 6.656-6.144 6.144-9.728 14.336-9.728 22.528V640c0 17.408 14.336 31.744 31.744 31.744 17.408 0 31.744-14.336 31.744-31.744v-238.592zM512 799.744c229.376 0 415.744-186.368 415.744-415.744s-186.368-415.744-415.744-415.744-415.744 186.368-415.744 415.744S282.624 799.744 512 799.744z m0-768c194.048 0 352.256 157.696 352.256 352.256S706.048 736.256 512 736.256 159.744 578.048 159.744 384 317.44 31.744 512 31.744z"  horiz-adv-x="1024" />

    
    <glyph glyph-name="more" unicode="&#58935;" d="M512-63.84000000000003c-247.2 0-447.84 200.64-447.84 447.84S264.8 831.84 512 831.84s447.84-200.64 447.84-447.84-200.64-447.84-447.84-447.84z m0 63.84c212.16 0 384 171.84 384 384s-171.84 384-384 384-384-171.84-384-384 171.84-384 384-384z m228.96 321.6c-34.56 0-62.4 27.84-62.4 62.4s27.84 62.4 62.4 62.4 62.4-27.84 62.4-62.4-27.84-62.4-62.4-62.4z m-228 0c-34.56 0-62.4 27.84-62.4 62.4s27.84 62.4 62.4 62.4 62.4-27.84 62.4-62.4-28.32-62.4-62.4-62.4z m-228.48 0c-34.56 0-62.4 27.84-62.4 62.4s27.84 62.4 62.4 62.4 62.4-27.84 62.4-62.4-27.84-62.4-62.4-62.4z"  horiz-adv-x="1024" />

    
    <glyph glyph-name="chaxunzimuhecailiao" unicode="&#58948;" d="M757.888 274.005333l172.928-248.234666c13.696-19.669333 8.96-46.805333-10.624-60.586667a43.136 43.136 0 0 0-60.288 10.666667l-175.402667 251.733333a300.842667 300.842667 0 0 0-122.922666-26.112c-167.381333 0-303.061333 136.362667-303.061334 304.554667S394.197333 810.666667 561.578667 810.666667s303.061333-136.362667 303.061333-304.554667a304.512 304.512 0 0 0-106.752-232.106667zM128 234.624h174.464a42.666667 42.666667 0 0 0 42.666667-42.666667v-1.706666a42.666667 42.666667 0 0 0-42.666667-42.666667H128a42.666667 42.666667 0 0 0-42.666667 42.666667v1.706666a42.666667 42.666667 0 0 0 42.666667 42.666667z m0 174.037333h44.544a42.666667 42.666667 0 0 0 42.666667-42.666666v-1.706667a42.666667 42.666667 0 0 0-42.666667-42.666667H128a42.666667 42.666667 0 0 0-42.666667 42.666667v1.706667a42.666667 42.666667 0 0 0 42.666667 42.666666z m0-348.074666h347.648a42.666667 42.666667 0 0 0 42.666667-42.666667v-1.706667a42.666667 42.666667 0 0 0-42.666667-42.666666H128a42.666667 42.666667 0 0 0-42.666667 42.666666v1.706667a42.666667 42.666667 0 0 0 42.666667 42.666667z m433.578667 227.968c119.552 0 216.490667 97.408 216.490666 217.557333S681.173333 723.626667 561.578667 723.626667 345.130667 626.261333 345.130667 506.112s96.896-217.557333 216.448-217.557333zM757.888 274.005333l172.928-248.234666c13.696-19.669333 8.96-46.805333-10.624-60.586667a43.136 43.136 0 0 0-60.288 10.666667l-175.402667 251.733333a300.842667 300.842667 0 0 0-122.922666-26.112c-167.381333 0-303.061333 136.362667-303.061334 304.554667s135.68 304.554667 303.061334 304.554666 303.061333-136.362667 303.061333-304.554666a304.469333 304.469333 0 0 0-106.752-232.021334zM128 234.624h174.464a42.666667 42.666667 0 0 0 42.666667-42.666667v-1.706666a42.666667 42.666667 0 0 0-42.666667-42.666667H128a42.666667 42.666667 0 0 0-42.666667 42.666667v1.706666a42.666667 42.666667 0 0 0 42.666667 42.666667z m0 174.037333h44.544a42.666667 42.666667 0 0 0 42.666667-42.666666v-1.706667a42.666667 42.666667 0 0 0-42.666667-42.666667H128a42.666667 42.666667 0 0 0-42.666667 42.666667v1.706667a42.666667 42.666667 0 0 0 42.666667 42.666666z m0-348.074666h347.648a42.666667 42.666667 0 0 0 42.666667-42.666667v-1.706667a42.666667 42.666667 0 0 0-42.666667-42.666666H128a42.666667 42.666667 0 0 0-42.666667 42.666666v1.706667a42.666667 42.666667 0 0 0 42.666667 42.666667z m433.578667 227.968c119.552 0 216.490667 97.408 216.490666 217.557333s-96.938667 217.557333-216.490666 217.557333-216.490667-97.408-216.490667-217.557333 96.938667-217.557333 216.490667-217.557333z"  horiz-adv-x="1024" />

    
    <glyph glyph-name="cundangdantiaocailiao" unicode="&#58949;" d="M469.333333 384v-85.333333H341.333333v-256h128v-85.333334H213.333333a128 128 0 0 0-128 128V682.666667a128 128 0 0 0 128 128h469.333334c11.306667 0 22.186667-4.48 30.165333-12.501334l213.333333-213.333333A42.538667 42.538667 0 0 0 938.666667 554.666667v-128h-85.333334V537.002667L665.002667 725.333333H341.333333v-128h298.666667a42.666667 42.666667 0 0 0 0-85.333333H298.666667a42.666667 42.666667 0 0 0-42.666667 42.666667V725.333333H213.333333a42.666667 42.666667 0 0 1-42.666666-42.666666v-597.333334a42.666667 42.666667 0 0 1 42.666666-42.666666h42.666667v298.666666a42.666667 42.666667 0 0 0 42.666667 42.666667h170.666666z m170.666667 0h298.666667a42.666667 42.666667 0 0 0 0-85.333333h-298.666667a42.666667 42.666667 0 0 0 0 85.333333z m0-170.666667h298.666667a42.666667 42.666667 0 0 0 0-85.333333h-298.666667a42.666667 42.666667 0 0 0 0 85.333333z m0-170.666666h298.666667a42.666667 42.666667 0 0 0 0-85.333334h-298.666667a42.666667 42.666667 0 0 0 0 85.333334zM469.333333 384v-85.333333H341.333333v-256h128v-85.333334H213.333333a128 128 0 0 0-128 128V682.666667a128 128 0 0 0 128 128h469.333334c11.306667 0 22.186667-4.48 30.165333-12.501334l213.333333-213.333333A42.666667 42.666667 0 0 0 938.666667 554.666667v-128h-85.333334V537.002667L665.002667 725.333333H341.333333v-128h298.666667a42.666667 42.666667 0 0 0 0-85.333333H298.666667a42.666667 42.666667 0 0 0-42.666667 42.666667V725.333333H213.333333a42.666667 42.666667 0 0 1-42.666666-42.666666v-597.333334a42.666667 42.666667 0 0 1 42.666666-42.666666h42.666667v298.666666a42.666667 42.666667 0 0 0 42.666667 42.666667h170.666666z m170.666667 0h298.666667a42.666667 42.666667 0 0 0 0-85.333333h-298.666667a42.666667 42.666667 0 0 0 0 85.333333z m0-170.666667h298.666667a42.666667 42.666667 0 0 0 0-85.333333h-298.666667a42.666667 42.666667 0 0 0 0 85.333333z m0-170.666666h298.666667a42.666667 42.666667 0 0 0 0-85.333334h-298.666667a42.666667 42.666667 0 0 0 0 85.333334z"  horiz-adv-x="1024" />

    
    <glyph glyph-name="guanliancailiao" unicode="&#58950;" d="M390.016 318.592a42.666667 42.666667 0 0 0 68.352 51.114667 170.752 170.752 0 0 1 257.365333-18.432l127.488 127.488a170.666667 170.666667 0 0 1-2.090666 239.232 170.538667 170.538667 0 0 1-238.805334 2.517333l-73.386666-72.96a42.666667 42.666667 0 1 0-60.16 60.501333l73.813333 73.386667a256 256 0 0 0 361.472-362.496l-128-128a256.128 256.128 0 0 0-386.048 27.648z m239.018667 136.448a42.666667 42.666667 0 0 0-68.352-51.114667 170.752 170.752 0 0 1-257.365334 18.432l-127.488-127.488a170.666667 170.666667 0 0 1 2.090667-239.232c65.834667-65.834667 172.288-66.773333 238.72-2.602666l72.96 72.96a42.624 42.624 0 1 0 60.330667-60.330667l-73.472-73.472a256 256 0 0 0-361.472 362.496l128 128a256.128 256.128 0 0 0 386.048-27.648zM938.666667 341.333333h42.666666a42.666667 42.666667 0 0 0 0-85.333333h-42.666666a42.666667 42.666667 0 0 0 0 85.333333z m-170.666667-170.666666h213.333333a42.666667 42.666667 0 0 0 0-85.333334h-213.333333a42.666667 42.666667 0 0 0 0 85.333334z m-128-170.666667h341.333333a42.666667 42.666667 0 0 0 0-85.333333h-341.333333a42.666667 42.666667 0 0 0 0 85.333333zM390.016 318.592a42.666667 42.666667 0 0 0 68.352 51.114667 170.752 170.752 0 0 1 257.365333-18.432l127.488 127.488a170.666667 170.666667 0 0 1-2.090666 239.232 170.538667 170.538667 0 0 1-238.805334 2.517333l-73.386666-72.96a42.666667 42.666667 0 1 0-60.16 60.501333l73.813333 73.386667a256 256 0 0 0 361.472-362.496l-128-128a256.128 256.128 0 0 0-386.048 27.648z m239.018667 136.448a42.666667 42.666667 0 0 0-68.352-51.114667 170.752 170.752 0 0 1-257.365334 18.432l-127.488-127.488a170.666667 170.666667 0 0 1 2.090667-239.232c65.834667-65.834667 172.288-66.773333 238.72-2.602666l72.96 72.96a42.624 42.624 0 1 0 60.330667-60.330667l-73.472-73.472a256 256 0 0 0-361.472 362.496l128 128a256.128 256.128 0 0 0 386.048-27.648zM938.666667 341.333333h42.666666a42.666667 42.666667 0 0 0 0-85.333333h-42.666666a42.666667 42.666667 0 0 0 0 85.333333z m-170.666667-170.666666h213.333333a42.666667 42.666667 0 0 0 0-85.333334h-213.333333a42.666667 42.666667 0 0 0 0 85.333334z m-128-170.666667h341.333333a42.666667 42.666667 0 0 0 0-85.333333h-341.333333a42.666667 42.666667 0 0 0 0 85.333333z"  horiz-adv-x="1024" />

    
    <glyph glyph-name="qingdanbaojia" unicode="&#58951;" d="M213.333333 768a42.666667 42.666667 0 0 1-42.666666-42.666667v-682.666666a42.666667 42.666667 0 0 1 42.666666-42.666667h597.333334a42.666667 42.666667 0 0 1 42.666666 42.666667V725.333333a42.666667 42.666667 0 0 1-42.666666 42.666667H213.333333z m0 85.333333h597.333334a128 128 0 0 0 128-128v-682.666666a128 128 0 0 0-128-128H213.333333a128 128 0 0 0-128 128V725.333333a128 128 0 0 0 128 128z m170.666667-341.333333h256a42.666667 42.666667 0 0 0 0-85.333333H384a42.666667 42.666667 0 0 0 0 85.333333z m0-170.666667h256a42.666667 42.666667 0 0 0 0-85.333333H384a42.666667 42.666667 0 0 0 0 85.333333z m85.333333-170.666666v256a42.666667 42.666667 0 0 0 85.333334 0v-256a42.666667 42.666667 0 0 0-85.333334 0z m-6.229333 308.565333L372.565333 569.770667a42.624 42.624 0 1 0 60.330667 60.330666l90.496-90.496a42.624 42.624 0 1 0-60.288-60.373333z m37.461333 60.330667l90.496 90.496a42.624 42.624 0 1 0 60.330667-60.330667l-90.496-90.496a42.624 42.624 0 1 0-60.330667 60.330667zM213.333333 768a42.666667 42.666667 0 0 1-42.666666-42.666667v-682.666666a42.666667 42.666667 0 0 1 42.666666-42.666667h597.333334a42.666667 42.666667 0 0 1 42.666666 42.666667V725.333333a42.666667 42.666667 0 0 1-42.666666 42.666667H213.333333z m0 85.333333h597.333334a128 128 0 0 0 128-128v-682.666666a128 128 0 0 0-128-128H213.333333a128 128 0 0 0-128 128V725.333333a128 128 0 0 0 128 128z m170.666667-341.333333h256a42.666667 42.666667 0 0 0 0-85.333333H384a42.666667 42.666667 0 0 0 0 85.333333z m0-170.666667h256a42.666667 42.666667 0 0 0 0-85.333333H384a42.666667 42.666667 0 0 0 0 85.333333z m85.333333-170.666666v256a42.666667 42.666667 0 0 0 85.333334 0v-256a42.666667 42.666667 0 0 0-85.333334 0z m-6.229333 308.565333L372.608 569.728a42.624 42.624 0 1 0 60.330667 60.330667l90.496-90.496a42.624 42.624 0 1 0-60.330667-60.330667z m37.461333 60.330667l90.496 90.496a42.624 42.624 0 1 0 60.330667-60.330667l-90.496-90.496a42.624 42.624 0 1 0-60.330667 60.330667z"  horiz-adv-x="1024" />

    
    <glyph glyph-name="huishouzhan" unicode="&#58952;" d="M38.771627 585.344a36.608 36.608 0 1 0 0 73.130667h220.117333a255.957333 255.957333 0 0 0 510.634667 0h220.074666a36.608 36.608 0 1 0 0-73.130667h-76.288L850.37696-23.296c-6.272-59.605333-53.205333-104.661333-109.056-104.661333H287.006293c-55.850667 0-102.784 45.098667-108.928 104.661333L114.931627 585.344H38.771627z m212.053333-599.978667a37.546667 37.546667 0 0 1 36.224-34.901333h454.229333a37.546667 37.546667 0 0 1 36.352 34.901333l62.122667 599.936H188.531627l62.293333-599.936zM696.13696 658.517333a182.826667 182.826667 0 0 1-363.904 0h363.904z m-64.938667-566.997333l-43.904 73.130667h53.504l-63.36 109.781333 41.472 74.581333 116.992-202.624a36.608 36.608 0 0 0-31.744-54.869333h-72.96z m-73.088 0H324.126293a36.48 36.48 0 0 0-31.658666 54.869333l36.48 63.189334 85.290666 1.450666-26.752-46.378666h126.72l43.904-73.130667z m24.277334 320.810667l-41.472-74.624L514.163627 384.085333l-63.36-109.696-85.248-1.493333 116.906666 202.666667a36.522667 36.522667 0 0 0 63.317334 0l36.608-63.232z"  horiz-adv-x="1027" />

    
    <glyph glyph-name="zhankaidao" unicode="&#58955;" d="M341.333333 426.666667h469.333334a42.666667 42.666667 0 0 0 0-85.333334H341.333333v-170.666666h469.333334a42.666667 42.666667 0 0 0 0-85.333334H298.666667a42.538667 42.538667 0 0 0-42.666667 42.666667V597.333333H128a42.666667 42.666667 0 0 0 0 85.333334h768a42.666667 42.666667 0 0 0 0-85.333334H341.333333v-170.666666zM341.333333 426.666667h469.333334a42.666667 42.666667 0 0 0 0-85.333334H341.333333v-170.666666h469.333334a42.666667 42.666667 0 0 0 0-85.333334H298.666667a42.538667 42.538667 0 0 0-42.666667 42.666667V597.333333H128a42.666667 42.666667 0 0 0 0 85.333334h768a42.666667 42.666667 0 0 0 0-85.333334H341.333333v-170.666666z"  horiz-adv-x="1024" />

    
    <glyph glyph-name="niantie" unicode="&#58957;" d="M469.333333 42.666667a42.666667 42.666667 0 0 0 0-85.333334H298.666667a213.333333 213.333333 0 0 0-213.333334 213.333334V640a213.333333 213.333333 0 0 0 213.333334 213.333333h341.333333a213.333333 213.333333 0 0 0 213.333333-213.333333v-170.666667a42.666667 42.666667 0 0 0-85.333333 0V640a128 128 0 0 1-128 128H298.666667a128 128 0 0 1-128-128v-469.333333a128 128 0 0 1 128-128h170.666666z m213.333334 341.333333h170.666666a128 128 0 0 0 128-128v-213.333333a128 128 0 0 0-128-128h-170.666666a128 128 0 0 0-128 128v213.333333a128 128 0 0 0 128 128z m0-85.333333a42.666667 42.666667 0 0 1-42.666667-42.666667v-213.333333a42.666667 42.666667 0 0 1 42.666667-42.666667h170.666666a42.666667 42.666667 0 0 1 42.666667 42.666667v213.333333a42.666667 42.666667 0 0 1-42.666667 42.666667h-170.666666zM306.304 554.666667a42.666667 42.666667 0 0 0 0 85.333333H640a42.666667 42.666667 0 0 0 0-85.333333H306.304z m0-213.333334a42.666667 42.666667 0 0 0 0 85.333334H512a42.666667 42.666667 0 0 0 0-85.333334H306.304z m0-213.333333a42.666667 42.666667 0 0 0 0 85.333333H426.666667a42.666667 42.666667 0 0 0 0-85.333333H306.304z"  horiz-adv-x="1024" />

    
    <glyph glyph-name="huifuxitongmoren" unicode="&#58961;" d="M649.045333 842.794667a426.666667 426.666667 0 0 0 308.053334-273.792 42.666667 42.666667 0 1 0-80.426667-28.458667 341.333333 341.333333 0 0 1-246.442667 219.050667 342.016 342.016 0 0 1-317.696-92.544l-119.466666-112.256H341.333333a42.666667 42.666667 0 0 0 0-85.333334H85.333333a42.666667 42.666667 0 0 0-39.552 26.666667l-0.213333 0.512A42.453333 42.453333 0 0 0 42.666667 512.170667V768.085333a42.666667 42.666667 0 0 0 85.333333 0v-157.354666l125.141333 117.546666a426.496 426.496 0 0 0 395.904 114.517334zM981.333333 298.666667a42.666667 42.666667 0 0 0 39.552-26.666667l0.213334-0.554667a42.453333 42.453333 0 0 0 2.901333-15.530666V0a42.666667 42.666667 0 0 0-85.333333 0v157.354667l-125.141334-117.546667a426.581333 426.581333 0 0 0-704 159.274667 42.666667 42.666667 0 1 0 80.426667 28.458666 341.333333 341.333333 0 0 1 246.442667-219.050666 342.016 342.016 0 0 1 317.696 92.544l119.466666 112.256H725.333333a42.666667 42.666667 0 0 0 0 85.333333h256z"  horiz-adv-x="1024" />

    
    <glyph glyph-name="chexiao" unicode="&#58962;" d="M414.165333 328.832a42.624 42.624 0 1 0-60.330666-60.330667l-213.333334 213.333334-3.114666 3.498666-0.298667 0.341334-0.725333 0.938666a32.085333 32.085333 0 0 0-3.029334 4.736 49.536 49.536 0 0 0-2.304 4.821334l-0.938666 2.56-0.554667 1.92a65.621333 65.621333 0 0 0-0.682667 2.773333l-0.384 2.261333A43.52 43.52 0 0 0 128 512l0.170667-3.797333A66.261333 66.261333 0 0 0 128 511.189333V512v0.810667c0 0.981333 0.085333 1.962667 0.170667 2.986666l0.298666 2.56 0.384 2.218667c0.170667 0.938667 0.426667 1.877333 0.64 2.773333l0.64 1.962667c0.256 0.853333 0.597333 1.664 0.896 2.517333a34.858667 34.858667 0 0 0 2.304 4.821334l0.896 1.536a40.874667 40.874667 0 0 0 6.272 7.936l-3.413333-3.84a42.112 42.112 0 0 0 3.413333 3.84l213.333334 213.333333a42.624 42.624 0 1 0 60.330666-60.330667L273.664 554.666667H682.666667a213.290667 213.290667 0 0 0 213.12-204.074667L896 341.333333v-298.666666a42.666667 42.666667 0 0 0-85.333333 0v298.666666a128 128 0 0 1-128 128H273.664l140.501333-140.501333z"  horiz-adv-x="1024" />

    
    <glyph glyph-name="baocun" unicode="&#58963;" d="M682.666667 298.666667H341.333333v-256h341.333334v256z m-17.664 426.666666H341.333333v-128h298.666667a42.666667 42.666667 0 0 0 0-85.333333H298.666667a42.666667 42.666667 0 0 0-42.666667 42.666667V725.333333H213.333333a42.666667 42.666667 0 0 1-42.666666-42.666666v-597.333334a42.666667 42.666667 0 0 1 42.666666-42.666666h42.666667v298.666666a42.666667 42.666667 0 0 0 37.674667 42.368L298.666667 384h426.666666a42.666667 42.666667 0 0 0 42.666667-42.666667v-298.666666h42.666667a42.666667 42.666667 0 0 1 42.666666 42.666666V537.002667L665.002667 725.333333zM682.666667 810.666667c11.306667 0 22.186667-4.48 30.165333-12.501334l213.333333-213.333333A42.538667 42.538667 0 0 0 938.666667 554.666667v-469.333334a128 128 0 0 0-128-128H213.333333a128 128 0 0 0-128 128V682.666667a128 128 0 0 0 128 128h469.333334z"  horiz-adv-x="1024" />

    
    <glyph glyph-name="chaxun" unicode="&#58964;" d="M448 725.333333a277.333333 277.333333 0 1 1 194.048-475.477333l1.92 2.176a30.549333 30.549333 0 0 0 2.133333 1.962667A277.333333 277.333333 0 0 1 448 725.333333z m0 85.333334a362.666667 362.666667 0 0 0 284.885333-587.136l193.28-193.365334a42.624 42.624 0 1 0-60.330666-60.330666l-193.365334 193.28A362.666667 362.666667 0 1 0 448 810.666667z"  horiz-adv-x="1024" />

    
    <glyph glyph-name="biaoji" unicode="&#58965;" d="M341.333333 768c-50.730667 0-89.344-7.04-117.504-18.261333A205.994667 205.994667 0 0 1 213.333333 745.130667v-420.693334C248.277333 335.232 290.730667 341.333333 341.333333 341.333333c60.458667 0 101.674667-11.776 186.496-45.738666 75.178667-30.037333 108.629333-39.594667 154.837334-39.594667 50.730667 0 89.344 7.04 117.504 18.261333 4.053333 1.621333 7.552 3.157333 10.496 4.565334v420.693333c-34.944-10.752-77.397333-16.853333-128-16.853333-60.458667 0-101.674667 11.776-186.496 45.738666C420.992 758.442667 387.541333 768 341.333333 768zM128 768c0 11.306667 4.48 22.186667 12.501333 30.165333 9.386667 9.386667 26.24 20.608 51.669334 30.762667C230.656 844.373333 280.064 853.333333 341.333333 853.333333c60.458667 0 101.674667-11.776 186.496-45.738666C603.008 777.557333 636.458667 768 682.666667 768c50.730667 0 89.344 7.04 117.504 18.261333 14.549333 5.845333 21.717333 10.581333 22.997333 11.904C850.048 825.045333 896 806.016 896 768v-512c0-11.306667-4.48-22.186667-12.501333-30.165333-9.386667-9.386667-26.24-20.608-51.669334-30.762667-38.485333-15.445333-87.893333-24.405333-149.162666-24.405333-60.458667 0-101.674667 11.776-186.496 45.738666C420.992 246.442667 387.541333 256 341.333333 256c-50.730667 0-89.344-7.04-117.504-18.261333a164.864 164.864 0 0 1-10.538666-4.608L213.333333-42.666667a42.666667 42.666667 0 0 0-85.333333 0V768z"  horiz-adv-x="1024" />

    
    <glyph glyph-name="charu" unicode="&#58966;" d="M401.664 341.333333l55.168-55.168a42.624 42.624 0 1 0-60.330667-60.330666l-128 128a42.624 42.624 0 0 0 0 60.330666l128 128a42.624 42.624 0 1 0 60.330667-60.330666L401.664 426.666667H896a42.666667 42.666667 0 0 0 0-85.333334H401.664zM725.333333 768a42.666667 42.666667 0 0 0 0-85.333333H128a42.666667 42.666667 0 0 0 0 85.333333h597.333333z m0-682.666667a42.666667 42.666667 0 0 0 0-85.333333H128a42.666667 42.666667 0 0 0 0 85.333333h597.333333zM401.664 341.333333l55.168-55.168a42.624 42.624 0 1 0-60.330667-60.330666l-128 128a42.624 42.624 0 0 0 0 60.330666l128 128a42.624 42.624 0 1 0 60.330667-60.330666L401.664 426.666667H896a42.666667 42.666667 0 0 0 0-85.333334H401.664zM725.333333 768a42.666667 42.666667 0 0 0 0-85.333333H128a42.666667 42.666667 0 0 0 0 85.333333h597.333333zM725.333333 85.333333a42.666667 42.666667 0 0 0 0-85.333333H128a42.666667 42.666667 0 0 0 0 85.333333h597.333333z"  horiz-adv-x="1024" />

    
    <glyph glyph-name="banbenxinxi" unicode="&#58967;" d="M481.834667 542.165333a42.624 42.624 0 1 0 60.330666-60.330666 42.624 42.624 0 1 0-60.330666 60.330666zM512 426.666667a42.666667 42.666667 0 0 0 42.666667-42.666667v-170.666667a42.666667 42.666667 0 0 0-85.333334 0v170.666667a42.666667 42.666667 0 0 0 42.666667 42.666667z m0 341.333333c-212.096 0-384-171.904-384-384s171.904-384 384-384 384 171.904 384 384-171.904 384-384 384z m0 85.333333c259.2 0 469.333333-210.133333 469.333333-469.333333s-210.133333-469.333333-469.333333-469.333333S42.666667 124.8 42.666667 384 252.8 853.333333 512 853.333333z"  horiz-adv-x="1024" />

    
    <glyph glyph-name="gongchengqingbiao" unicode="&#58968;" d="M554.709333 765.610667V426.666667h338.944a384.128 384.128 0 0 1-338.944 338.944z m-42.666666 87.722666a469.333333 469.333333 0 0 0 469.333333-469.333333 42.666667 42.666667 0 0 0-42.666667-42.666667h-426.666666a42.666667 42.666667 0 0 0-42.666667 42.666667V810.666667a42.666667 42.666667 0 0 0 42.666667 42.666666z m-187.733334-38.954666A42.624 42.624 0 1 0 358.4 736.170667a384.085333 384.085333 0 0 1 104.021333-732.757334 384 384 0 0 1 403.285334 231.210667 42.666667 42.666667 0 1 0 78.634666-33.237333A469.333333 469.333333 0 1 0 324.309333 814.378667z"  horiz-adv-x="1024" />

    
    <glyph glyph-name="fangda" unicode="&#58969;" d="M469.333333 597.333333a42.666667 42.666667 0 0 0 42.666667-42.666666v-85.333334h85.333333a42.666667 42.666667 0 0 0 42.368-37.674666L640 426.666667a42.666667 42.666667 0 0 0-42.666667-42.666667h-85.333333v-85.333333a42.666667 42.666667 0 0 0-37.674667-42.368L469.333333 256a42.666667 42.666667 0 0 0-42.666666 42.666667v85.333333H341.333333a42.666667 42.666667 0 0 0-42.368 37.674667L298.666667 426.666667a42.666667 42.666667 0 0 0 42.666666 42.666666h85.333334V554.666667a42.666667 42.666667 0 0 0 37.674666 42.368L469.333333 597.333333z m0 128a298.666667 298.666667 0 1 1 207.573334-513.408l3.285333 3.84a40.448 40.448 0 0 0 3.797333 3.370667A298.666667 298.666667 0 0 1 469.333333 725.333333z m0 85.333334a384 384 0 0 0 384-384 382.122667 382.122667 0 0 0-83.968-239.658667l156.8-156.842667a42.624 42.624 0 1 0-60.330666-60.330666l-156.842667 156.8A382.122667 382.122667 0 0 0 469.333333 42.666667c-212.096 0-384 171.904-384 384s171.904 384 384 384z"  horiz-adv-x="1024" />

    
    <glyph glyph-name="fenxiang" unicode="&#58970;" d="M768 768a85.333333 85.333333 0 0 1-74.666667-126.677333l1.024-1.578667 0.384-0.725333A85.333333 85.333333 0 1 1 768 768zM256 469.333333a85.333333 85.333333 0 1 1 73.216-129.152l0.426667 0.896 1.024 1.621334c6.784 12.202667 10.666667 26.325333 10.666666 41.301333a84.906667 84.906667 0 0 1-10.837333 41.642667l-0.853333 1.28-0.384 0.725333A85.034667 85.034667 0 0 1 256 469.333333z m512-298.666666c-29.653333 0-55.808-15.146667-71.082667-38.144l-2.133333-4.266667a34.986667 34.986667 0 0 0-2.773333-4.138667l-1.450667-2.816A85.333333 85.333333 0 1 1 768 170.666667z m0 682.666666a170.666667 170.666667 0 1 0-121.216-290.773333L420.266667 430.421333a171.434667 171.434667 0 0 0 0.042666-92.8l226.602667-132.053333a170.666667 170.666667 0 1 0-43.136-73.642667l-226.517333 131.968a170.666667 170.666667 0 1 0-0.042667 240.213334l226.474667 132.138666A170.666667 170.666667 0 0 0 768 853.333333z"  horiz-adv-x="1024" />

    
    <glyph glyph-name="dayin" unicode="&#58971;" d="M725.333333 768H298.666667v-213.333333h426.666666V768z m128-298.666667H170.666667a42.666667 42.666667 0 0 1-42.666667-42.666666v-213.333334a42.666667 42.666667 0 0 1 42.666667-42.666666h42.666666v128a42.666667 42.666667 0 0 0 42.666667 42.666666h512a42.666667 42.666667 0 0 0 42.666667-42.666666v-128h42.666666a42.666667 42.666667 0 0 1 42.368 37.674666L896 213.333333v213.333334a42.666667 42.666667 0 0 1-42.666667 42.666666z m-128-213.333333H298.666667v-256h426.666666v256z m42.666667 597.333333a42.666667 42.666667 0 0 0 42.666667-42.666666v-256h42.666666a128 128 0 0 0 127.786667-120.490667L981.333333 426.666667v-213.333334a128 128 0 0 0-128-128h-42.666666v-128a42.666667 42.666667 0 0 0-42.666667-42.666666H256a42.666667 42.666667 0 0 0-42.666667 42.666666v128H170.666667a128 128 0 0 0-127.786667 120.490667L42.666667 213.333333v213.333334a128 128 0 0 0 128 128h42.666666V810.666667a42.666667 42.666667 0 0 0 37.674667 42.368L256 853.333333h512z"  horiz-adv-x="1024" />

    
    <glyph glyph-name="daoruexcel" unicode="&#58973;" d="M439.168 584.832a42.624 42.624 0 0 0 60.330667 0l170.666666-170.666667c1.194667-1.194667 2.346667-2.517333 3.413334-3.84l0.682666-0.896a32.085333 32.085333 0 0 0 2.133334-3.2c0.298667-0.512 0.64-1.024 0.896-1.578666a49.536 49.536 0 0 0 2.261333-4.821334l0.938667-2.56 0.597333-1.962666 0.682667-2.773334 0.384-2.218666A38.229333 38.229333 0 0 0 682.666667 384l-0.170667 3.669333a20.864 20.864 0 0 0 0.128-2.304L682.666667 384l-0.042667-1.450667-0.128-2.218666a53.461333 53.461333 0 0 0-0.298667-2.730667l-0.384-2.218667c-0.170667-0.938667-0.426667-1.877333-0.64-2.773333a26.368 26.368 0 0 0-0.597333-1.962667c-0.256-0.853333-0.597333-1.664-0.896-2.517333a34.858667 34.858667 0 0 0-2.304-4.821333l-0.896-1.536a40.874667 40.874667 0 0 0-6.272-7.936l3.413333 3.84-0.298666-0.384-3.114667-3.498667-170.666667-170.666667a42.624 42.624 0 1 0-60.330666 60.330667L536.96 341.333333H128a42.666667 42.666667 0 0 0-42.368 37.674667L85.333333 384a42.666667 42.666667 0 0 0 42.666667 42.666667h408.96l-97.792 97.834666a42.666667 42.666667 0 0 0-3.541333 56.32l3.541333 4.010667zM810.666667 853.333333a128 128 0 0 0 128-128v-682.666666a128 128 0 0 0-128-128h-213.333334a42.666667 42.666667 0 0 0 0 85.333333h213.333334a42.666667 42.666667 0 0 1 42.666666 42.666667V725.333333a42.666667 42.666667 0 0 1-42.666666 42.666667h-213.333334a42.666667 42.666667 0 0 0 0 85.333333h213.333334z"  horiz-adv-x="1024" />

    
    <glyph glyph-name="qingdanbianzhi" unicode="&#58974;" d="M768 750.336l-384-384V256h110.336l384 384L768 750.336z m30.165333 90.496l170.666667-170.666667a42.624 42.624 0 0 0 0-60.330666l-426.666667-426.666667A42.538667 42.538667 0 0 0 512 170.666667H341.333333a42.666667 42.666667 0 0 0-42.666666 42.666666v170.666667c0 11.306667 4.48 22.186667 12.501333 30.165333l426.666667 426.666667a42.624 42.624 0 0 0 60.330666 0zM398.506667 768a42.666667 42.666667 0 0 0 0-85.333333H170.666667a42.666667 42.666667 0 0 1-42.666667-42.666667v-597.333333a42.666667 42.666667 0 0 1 42.666667-42.666667h597.333333a42.666667 42.666667 0 0 1 42.666667 42.666667v227.84a42.666667 42.666667 0 0 0 85.333333 0V42.666667a128 128 0 0 0-128-128H170.666667a128 128 0 0 0-128 128V640a128 128 0 0 0 128 128h227.84z"  horiz-adv-x="1024" />

    
    <glyph glyph-name="quanping" unicode="&#58975;" d="M85.333333 213.333333v-128a128 128 0 0 1 128-128h128a42.666667 42.666667 0 0 1 0 85.333334H213.333333a42.666667 42.666667 0 0 0-42.666666 42.666666v128a42.666667 42.666667 0 0 1-85.333334 0z m597.333334-256h128a128 128 0 0 1 128 128v128a42.666667 42.666667 0 0 1-85.333334 0v-128a42.666667 42.666667 0 0 0-42.666666-42.666666h-128a42.666667 42.666667 0 0 1 0-85.333334z m256 597.333334V682.666667a128 128 0 0 1-128 128h-128a42.666667 42.666667 0 0 1 0-85.333334h128a42.666667 42.666667 0 0 0 42.666666-42.666666v-128a42.666667 42.666667 0 0 1 85.333334 0zM341.333333 810.666667H213.333333a128 128 0 0 1-128-128v-128a42.666667 42.666667 0 0 1 85.333334 0V682.666667a42.666667 42.666667 0 0 0 42.666666 42.666666h128a42.666667 42.666667 0 0 1 0 85.333334z"  horiz-adv-x="1024" />

    
    <glyph glyph-name="suoxiao" unicode="&#58976;" d="M597.333333 469.333333a42.666667 42.666667 0 0 0 0-85.333333H341.333333a42.666667 42.666667 0 0 0 0 85.333333h256z m-128 256a298.666667 298.666667 0 1 1 207.573334-513.408l3.285333 3.84a40.448 40.448 0 0 0 3.797333 3.370667A298.666667 298.666667 0 0 1 469.333333 725.333333z m0 85.333334a384 384 0 0 0 384-384 382.122667 382.122667 0 0 0-83.968-239.658667l156.8-156.842667a42.624 42.624 0 1 0-60.330666-60.330666l-156.842667 156.8A382.122667 382.122667 0 0 0 469.333333 42.666667c-212.096 0-384 171.904-384 384s171.904 384 384 384z"  horiz-adv-x="1024" />

    
    <glyph glyph-name="daochuexcel" unicode="&#58977;" d="M695.168 584.832a42.624 42.624 0 0 0 60.330667 0l170.666666-170.666667c1.194667-1.194667 2.346667-2.517333 3.413334-3.84l0.682666-0.896a32.085333 32.085333 0 0 0 2.133334-3.2c0.298667-0.512 0.64-1.024 0.896-1.578666a49.536 49.536 0 0 0 2.261333-4.821334l0.938667-2.56 0.597333-1.962666 0.682667-2.773334 0.384-2.218666A38.229333 38.229333 0 0 0 938.666667 384l-0.170667 3.669333a20.864 20.864 0 0 0 0.128-2.304L938.666667 384l-0.042667-1.450667-0.128-2.218666a53.461333 53.461333 0 0 0-0.298667-2.730667l-0.384-2.218667c-0.170667-0.938667-0.426667-1.877333-0.64-2.773333a26.368 26.368 0 0 0-0.597333-1.962667c-0.256-0.853333-0.597333-1.664-0.896-2.517333a34.858667 34.858667 0 0 0-2.304-4.821333l-0.896-1.536a40.874667 40.874667 0 0 0-6.272-7.936l3.413333 3.84-0.298666-0.384-3.114667-3.498667-170.666667-170.666667a42.624 42.624 0 1 0-60.330666 60.330667L792.96 341.333333H384a42.666667 42.666667 0 0 0-42.368 37.674667L341.333333 384a42.666667 42.666667 0 0 0 42.666667 42.666667h408.96l-97.792 97.834666a42.666667 42.666667 0 0 0-3.541333 56.32l3.541333 4.010667zM426.666667 853.333333a42.666667 42.666667 0 0 0 0-85.333333H213.333333a42.666667 42.666667 0 0 1-42.666666-42.666667v-682.666666a42.666667 42.666667 0 0 1 42.666666-42.666667h213.333334a42.666667 42.666667 0 0 0 0-85.333333H213.333333a128 128 0 0 0-128 128V725.333333a128 128 0 0 0 128 128h213.333334z"  horiz-adv-x="1024" />

    
    <glyph glyph-name="jinggao" unicode="&#58979;" d="M531.072 550.272a42.666667 42.666667 0 0 0 42.666667-42.666667v-170.666666a42.666667 42.666667 0 0 0-85.333334 0v170.666666a42.666667 42.666667 0 0 0 42.666667 42.666667z m-30.165333-311.168a42.624 42.624 0 1 0 60.330666-60.330667 42.624 42.624 0 1 0-60.330666 60.330667zM531.072 725.333333c-14.890667 0-28.672-7.765333-36.437333-20.437333l-360.96-602.581333a42.624 42.624 0 0 1 36.010666-64h722.304a42.666667 42.666667 0 0 1 36.821334 63.402666L567.552 704.810667A42.666667 42.666667 0 0 1 531.072 725.333333z m0 85.333334c44.757333 0 86.229333-23.381333 109.568-61.824l361.728-603.904a128 128 0 0 0-109.909333-192H169.216a128 128 0 0 0-109.098667 192.597333l361.386667 603.306667A128.128 128.128 0 0 0 531.072 810.666667z"  horiz-adv-x="1024" />

    
    <glyph glyph-name="tuichu" unicode="&#58981;" d="M512.213333 853.333333a42.666667 42.666667 0 0 0 42.666667-42.666666v-426.666667a42.666667 42.666667 0 0 0-85.333333 0V810.666667a42.666667 42.666667 0 0 0 42.666666 42.666666zM210.261333 642.858667a42.624 42.624 0 1 0 60.330667-60.330667 341.333333 341.333333 0 1 1 482.773333 0 42.666667 42.666667 0 0 0 60.330667 60.330667c166.570667-166.656 166.570667-436.778667-0.085333-603.349334-166.613333-166.613333-436.736-166.613333-603.349334 0s-166.613333 436.693333 0 603.349334z"  horiz-adv-x="1024" />

    
    <glyph glyph-name="wodewenjian" unicode="&#58983;" d="M640 707.626667V597.333333h110.336L640 707.626667zM426.666667 554.666667a42.666667 42.666667 0 0 0 0-85.333334H341.333333a42.666667 42.666667 0 0 0 0 85.333334h85.333334z m256-170.666667a42.666667 42.666667 0 0 0 0-85.333333H341.333333a42.666667 42.666667 0 0 0 0 85.333333h341.333334z m0-170.666667a42.666667 42.666667 0 0 0 0-85.333333H341.333333a42.666667 42.666667 0 0 0 0 85.333333h341.333334zM554.666667 768H256a42.666667 42.666667 0 0 1-42.666667-42.666667v-682.666666a42.666667 42.666667 0 0 1 42.666667-42.666667h512a42.666667 42.666667 0 0 1 42.666667 42.666667V512h-213.333334a42.666667 42.666667 0 0 0-42.368 37.674667L554.666667 554.666667V768z m42.666666 85.333333c1.834667 0 3.626667-0.128 5.376-0.341333L597.333333 853.333333a43.861333 43.861333 0 0 0 10.666667-1.322666l1.28-0.384a41.6 41.6 0 0 0 3.882667-1.322667l1.152-0.512a33.152 33.152 0 0 0 3.498666-1.706667l1.322667-0.768a48.64 48.64 0 0 0 4.821333-3.370666l3.498667-3.114667 256-256c1.237333-1.237333 2.432-2.56 3.498667-3.968l-3.498667 3.968a40.661333 40.661333 0 0 0 6.485333-8.32l0.768-1.365333a33.152 33.152 0 0 0 1.706667-3.498667l0.469333-1.152c0.512-1.28 0.981333-2.56 1.365334-3.882667l0.341333-1.28a38.4 38.4 0 0 0 0.810667-3.968l0.170666-1.322666c0.298667-1.749333 0.426667-3.541333 0.426667-5.376v-512a128 128 0 0 0-128-128H256a128 128 0 0 0-128 128V725.333333a128 128 0 0 0 128 128h341.333333z"  horiz-adv-x="1024" />

    
    <glyph glyph-name="shangyi" unicode="&#58984;" d="M512 768h0.810667a35.029333 35.029333 0 0 0 5.546666-0.469333l2.218667-0.384c0.938667-0.170667 1.877333-0.426667 2.773333-0.64a26.368 26.368 0 0 0 1.962667-0.597334c0.853333-0.256 1.664-0.597333 2.517333-0.896a34.858667 34.858667 0 0 0 4.821334-2.304l1.536-0.896a40.874667 40.874667 0 0 0 7.936-6.272l-3.84 3.413334 0.384-0.298667 3.498666-3.114667 256-256a42.624 42.624 0 1 0-60.330666-60.330666L554.666667 622.336V42.666667a42.666667 42.666667 0 0 0-37.674667-42.368L512 0a42.666667 42.666667 0 0 0-42.666667 42.666667V622.336l-183.168-183.168a42.666667 42.666667 0 0 0-56.32-3.541333l-4.010666 3.541333a42.624 42.624 0 0 0 0 60.330667l256 256 3.498666 3.114666 0.384 0.298667 0.896 0.682667a32.085333 32.085333 0 0 0 3.2 2.133333c0.512 0.298667 1.024 0.64 1.578667 0.896a49.536 49.536 0 0 0 4.821333 2.261333l2.56 0.938667 1.962667 0.597333 2.773333 0.682667 2.218667 0.384A37.333333 37.333333 0 0 0 512 768l-3.797333-0.170667 3.029333 0.170667H512z"  horiz-adv-x="1024" />

    
    <glyph glyph-name="huanyuan" unicode="&#58985;" d="M85.333333 427.050667l-2.218666 0.042666-1.92 0.128a42.709333 42.709333 0 0 0-3.370667 0.469334l-1.749333 0.341333a26.368 26.368 0 0 0-2.474667 0.64l-2.474667 0.768a42.88 42.88 0 0 0-16.896 11.050667l3.370667-3.2a55.168 55.168 0 0 0-3.242667 3.072l-0.426666 0.469333a44.373333 44.373333 0 0 0-7.509334 11.349333l-1.066666 2.517334-0.768 2.176-0.682667 2.432a28.288 28.288 0 0 0-0.554667 2.602666l-0.341333 2.133334A49.450667 49.450667 0 0 0 42.666667 469.717333l0.085333-3.029333a51.285333 51.285333 0 0 0-0.085333 2.56V725.717333a42.666667 42.666667 0 0 0 85.333333 0v-157.354666l125.141333 117.589333a426.666667 426.666667 0 0 0 496.469334 77.525333l11.392-6.101333a426.709333 426.709333 0 0 0-181.888-799.402667 426.666667 426.666667 0 0 0-426.922667 284.202667 42.624 42.624 0 1 0 80.469333 28.330667 341.290667 341.290667 0 0 1 654.762667 37.717333 341.333333 341.333333 0 0 1-167.68 374.485333A341.717333 341.717333 0 0 1 312.533333 624.64L193.024 512.426667 341.333333 512.384a42.666667 42.666667 0 0 0 42.368-37.674667L384 469.717333a42.666667 42.666667 0 0 0-42.666667-42.666666H85.333333z"  horiz-adv-x="1024" />

    
    <glyph glyph-name="zhongmingming" unicode="&#58986;" d="M627.498667 840.832l170.666666-170.666667a42.624 42.624 0 0 0 0-60.330666l-469.333333-469.333334A42.538667 42.538667 0 0 0 298.666667 128H128a42.666667 42.666667 0 0 0-42.666667 42.666667v170.666666c0 11.306667 4.48 22.186667 12.501334 30.165334l469.333333 469.333333a42.624 42.624 0 0 0 60.330667 0zM896 0a42.666667 42.666667 0 0 0 0-85.333333H128a42.666667 42.666667 0 0 0 0 85.333333h768zM597.333333 750.336l-426.666666-426.666667V213.333333h110.336l426.666666 426.666667L597.333333 750.336z"  horiz-adv-x="1024" />

    
    <glyph glyph-name="mima" unicode="&#58987;" d="M512 768a170.666667 170.666667 0 0 1-170.666667-170.666667v-128h341.333334V597.333333a170.666667 170.666667 0 0 1-162.133334 170.453334L512 768z m298.666667-384H213.333333a42.666667 42.666667 0 0 1-42.666666-42.666667v-298.666666a42.666667 42.666667 0 0 1 42.666666-42.666667h597.333334a42.666667 42.666667 0 0 1 42.666666 42.666667v298.666666a42.666667 42.666667 0 0 1-42.666666 42.666667zM512 853.333333a256 256 0 0 0 256-256v-128h42.666667a128 128 0 0 0 128-128v-298.666666a128 128 0 0 0-128-128H213.333333a128 128 0 0 0-128 128v298.666666a128 128 0 0 0 128 128h42.666667V597.333333a256 256 0 0 0 246.4 255.829334L512 853.333333z"  horiz-adv-x="1024" />

    
    <glyph glyph-name="xinjiankongbai" unicode="&#58988;" d="M512 725.333333a42.666667 42.666667 0 0 0 42.666667-42.666666v-256h256a42.666667 42.666667 0 0 0 42.368-37.674667L853.333333 384a42.666667 42.666667 0 0 0-42.666666-42.666667h-256v-256a42.666667 42.666667 0 0 0-37.674667-42.368L512 42.666667a42.666667 42.666667 0 0 0-42.666667 42.666666v256H213.333333a42.666667 42.666667 0 0 0-42.368 37.674667L170.666667 384a42.666667 42.666667 0 0 0 42.666666 42.666667h256V682.666667a42.666667 42.666667 0 0 0 37.674667 42.368L512 725.333333z"  horiz-adv-x="1024" />

    
    <glyph glyph-name="fuzhi" unicode="&#58989;" d="M890.197333 854.016H347.178667C296.832 854.016 256 814.805333 256 766.464v-75.861333h86.016V739.072c0 16.128 13.610667 29.184 30.378667 29.184h492.16c16.768 0 30.378667-13.056 30.378666-29.184v-539.349333c0-7.68-3.2-15.061333-8.96-20.437334a30.378667 30.378667 0 0 0-21.461333-8.149333H733.866667v-85.12h156.245333c50.133333 0 90.88 38.826667 91.178667 86.954667V766.464C981.333333 814.805333 940.501333 854.016 890.197333 854.016zM676.864 681.984H133.845333C83.498667 681.984 42.666667 642.773333 42.666667 594.432v-75.861333h86.016V567.04c0 16.128 13.610667 29.184 30.378666 29.184h492.16c16.768 0 30.378667-13.056 30.378667-29.184v-539.349333c0-7.68-3.2-15.061333-8.96-20.437334a30.378667 30.378667 0 0 0-21.461333-8.149333H520.533333v-85.12h156.245334c50.133333 0 90.88 38.826667 91.178666 86.954667V594.432c0.042667 48.341333-40.789333 87.552-91.093333 87.552zM42.709333 594.432v-593.493333c0.298667-48.128 41.045333-86.954667 91.178667-86.954667H546.133333v85.12H159.445333a30.378667 30.378667 0 0 0-21.461333 8.149333 27.946667 27.946667 0 0 0-8.96 20.437334V567.04c0 16.128 13.610667 29.184 30.378667 29.184h492.16c16.768 0 30.378667-13.056 30.378666-29.184v-48.469333H768V594.432c0 48.341333-40.832 87.552-91.178667 87.552H133.802667c-50.304 0-91.136-39.210667-91.093334-87.552zM256 511.317333h298.666667a42.666667 42.666667 0 0 0 0-85.333333H256a42.666667 42.666667 0 0 0 0 85.333333zM256 340.650667h298.666667a42.666667 42.666667 0 0 0 0-85.333334H256a42.666667 42.666667 0 0 0 0 85.333334zM256 169.984h298.666667a42.666667 42.666667 0 0 0 0-85.333333H256a42.666667 42.666667 0 0 0 0 85.333333z"  horiz-adv-x="1024" />

    
    <glyph glyph-name="yijianqingbiao" unicode="&#58990;" d="M896 810.666667h0.810667a35.029333 35.029333 0 0 0 5.546666-0.469334l2.218667-0.384c0.938667-0.170667 1.877333-0.426667 2.773333-0.64a26.368 26.368 0 0 0 1.962667-0.597333c0.853333-0.256 1.664-0.597333 2.517333-0.896a34.858667 34.858667 0 0 0 4.821334-2.304l1.536-0.896a40.874667 40.874667 0 0 0 7.936-6.272l-3.84 3.413333c2.688-2.133333 5.162667-4.565333 7.253333-7.253333l0.682667-0.896a32.085333 32.085333 0 0 0 2.133333-3.2c0.298667-0.512 0.64-1.024 0.896-1.578667a49.536 49.536 0 0 0 2.261333-4.821333l0.938667-2.56 0.597333-1.962667 0.682667-2.773333 0.384-2.218667A34.901333 34.901333 0 0 0 938.666667 768l-0.170667 3.669333a20.864 20.864 0 0 0 0.128-2.304L938.666667 768v-256a42.666667 42.666667 0 0 0-85.333334 0V665.002667l-396.501333-396.501334a42.666667 42.666667 0 0 0-56.32-3.541333l-4.010667 3.541333a42.624 42.624 0 0 0 0 60.330667L792.917333 725.333333H640a42.666667 42.666667 0 0 0-42.368 37.674667L597.333333 768a42.666667 42.666667 0 0 0 42.666667 42.666667h256zM469.333333 682.666667a42.666667 42.666667 0 0 0 0-85.333334H213.333333a42.666667 42.666667 0 0 1-42.666666-42.666666v-469.333334a42.666667 42.666667 0 0 1 42.666666-42.666666h469.333334a42.666667 42.666667 0 0 1 42.666666 42.666666v256a42.666667 42.666667 0 0 0 85.333334 0v-256a128 128 0 0 0-128-128H213.333333a128 128 0 0 0-128 128V554.666667a128 128 0 0 0 128 128h256z"  horiz-adv-x="1024" />

    
    <glyph glyph-name="xinjiangongcheng" unicode="&#58991;" d="M640 707.626667V597.333333h110.336L640 707.626667zM512 426.666667a42.666667 42.666667 0 0 0 42.666667-42.666667v-85.333333h85.333333a42.666667 42.666667 0 0 0 42.368-37.674667L682.666667 256a42.666667 42.666667 0 0 0-42.666667-42.666667h-85.333333v-85.333333a42.666667 42.666667 0 0 0-37.674667-42.368L512 85.333333a42.666667 42.666667 0 0 0-42.666667 42.666667v85.333333H384a42.666667 42.666667 0 0 0-42.368 37.674667L341.333333 256a42.666667 42.666667 0 0 0 42.666667 42.666667h85.333333v85.333333a42.666667 42.666667 0 0 0 37.674667 42.368L512 426.666667z m42.666667 341.333333H256a42.666667 42.666667 0 0 1-42.666667-42.666667v-682.666666a42.666667 42.666667 0 0 1 42.666667-42.666667h512a42.666667 42.666667 0 0 1 42.666667 42.666667V512h-213.333334a42.666667 42.666667 0 0 0-42.368 37.674667L554.666667 554.666667V768z m42.666666 85.333333c1.834667 0 3.626667-0.128 5.376-0.341333L597.333333 853.333333a43.861333 43.861333 0 0 0 10.666667-1.322666l1.28-0.384a41.6 41.6 0 0 0 3.882667-1.322667l1.152-0.512a33.152 33.152 0 0 0 3.498666-1.706667l1.322667-0.768a48.64 48.64 0 0 0 4.821333-3.370666l3.498667-3.114667 256-256c1.237333-1.237333 2.432-2.56 3.498667-3.968l-3.498667 3.968a40.661333 40.661333 0 0 0 6.485333-8.32l0.768-1.365333a33.152 33.152 0 0 0 1.706667-3.498667l0.469333-1.152c0.512-1.28 0.981333-2.56 1.365334-3.882667l0.341333-1.28a38.4 38.4 0 0 0 0.810667-3.968l0.170666-1.322666c0.298667-1.749333 0.426667-3.541333 0.426667-5.376v-512a128 128 0 0 0-128-128H256a128 128 0 0 0-128 128V725.333333a128 128 0 0 0 128 128h341.333333z"  horiz-adv-x="1024" />

    
    <glyph glyph-name="yonghuming" unicode="&#58992;" d="M512 725.333333a128 128 0 1 1 0-256 128 128 0 0 1 0 256z m0 85.333334a213.333333 213.333333 0 1 0-0.042667-426.709334A213.333333 213.333333 0 0 0 512 810.666667z m170.666667-512a213.333333 213.333333 0 0 0 213.333333-213.333334v-85.333333a42.666667 42.666667 0 0 0-85.333333 0v85.333333a128 128 0 0 1-128 128H341.333333a128 128 0 0 1-128-128v-85.333333a42.666667 42.666667 0 0 0-85.333333 0v85.333333a213.333333 213.333333 0 0 0 213.333333 213.333334h341.333334z"  horiz-adv-x="1024" />

    
    <glyph glyph-name="huifu" unicode="&#58993;" d="M609.834667 755.498667a42.624 42.624 0 0 0 60.330666 0l213.333334-213.333334c1.194667-1.194667 2.346667-2.517333 3.413333-3.84l0.682667-0.896a32.085333 32.085333 0 0 0 2.133333-3.2c0.298667-0.512 0.64-1.024 0.896-1.578666a49.536 49.536 0 0 0 2.261333-4.821334l0.938667-2.56 0.597333-1.962666 0.682667-2.773334 0.384-2.218666A38.229333 38.229333 0 0 0 896 512l-0.170667 3.669333a20.864 20.864 0 0 0 0.128-2.304L896 512l-0.042667-1.450667-0.128-2.218666a53.461333 53.461333 0 0 0-0.298666-2.730667l-0.384-2.218667c-0.170667-0.938667-0.426667-1.877333-0.64-2.773333a26.368 26.368 0 0 0-0.597334-1.962667c-0.256-0.853333-0.597333-1.664-0.896-2.517333a34.858667 34.858667 0 0 0-2.304-4.821333l-0.896-1.536a40.874667 40.874667 0 0 0-6.272-7.936l3.413334 3.84-0.298667-0.384-3.114667-3.498667-213.333333-213.333333a42.624 42.624 0 1 0-60.330667 60.330666L750.293333 469.333333H341.333333a128 128 0 0 1-127.786666-120.490666L213.333333 341.333333v-298.666666a42.666667 42.666667 0 0 0-85.333333 0v298.666666a213.333333 213.333333 0 0 0 213.333333 213.333334h408.96l-140.458666 140.501333a42.666667 42.666667 0 0 0-3.541334 56.32l3.541334 4.010667z"  horiz-adv-x="1024" />

    
    <glyph glyph-name="xiayi" unicode="&#58994;" d="M512 768a42.666667 42.666667 0 0 0 42.666667-42.666667v-579.626666l183.168 183.125333a42.666667 42.666667 0 0 0 56.32 3.541333l4.010666-3.541333a42.624 42.624 0 0 0 0-60.330667l-256-256a48.725333 48.725333 0 0 0-3.84-3.413333l-0.896-0.682667a32.085333 32.085333 0 0 0-3.2-2.133333c-0.512-0.298667-1.024-0.64-1.578666-0.896a49.536 49.536 0 0 0-4.821334-2.261333l-2.56-0.938667-1.962666-0.597333a65.621333 65.621333 0 0 0-2.773334-0.682667l-2.218666-0.384A38.229333 38.229333 0 0 0 512 0l3.626667 0.170667-2.218667-0.128L512 0l-1.408 0.042667-2.261333 0.128a51.754667 51.754667 0 0 0-2.688 0.298666l-2.218667 0.384c-0.938667 0.170667-1.877333 0.426667-2.773333 0.64a26.368 26.368 0 0 0-1.962667 0.597334c-0.853333 0.256-1.664 0.597333-2.517333 0.896a34.858667 34.858667 0 0 0-4.821334 2.304l-1.536 0.896a40.874667 40.874667 0 0 0-7.936 6.272l3.84-3.413334a42.112 42.112 0 0 0-3.84 3.413334l-256 256a42.624 42.624 0 1 0 60.330667 60.330666L469.333333 145.706667V725.333333a42.666667 42.666667 0 0 0 37.674667 42.368L512 768z"  horiz-adv-x="1024" />

    
    <glyph glyph-name="shanchu" unicode="&#58995;" d="M597.333333 768h-170.666666a42.666667 42.666667 0 0 1-42.666667-42.666667v-42.666666h256V725.333333a42.666667 42.666667 0 0 1-37.674667 42.368L597.333333 768z m0-298.666667a42.666667 42.666667 0 0 0 42.666667-42.666666v-256a42.666667 42.666667 0 0 0-85.333333 0v256a42.666667 42.666667 0 0 0 42.666666 42.666666z m-170.666666 0a42.666667 42.666667 0 0 0 42.666666-42.666666v-256a42.666667 42.666667 0 0 0-85.333333 0v256a42.666667 42.666667 0 0 0 42.666667 42.666666z m341.333333 128H256v-554.666666a42.666667 42.666667 0 0 1 37.674667-42.368L298.666667 0h426.666666a42.666667 42.666667 0 0 1 42.666667 42.666667V597.333333z m-170.666667 256a128 128 0 0 0 128-128v-42.666666h170.666667a42.666667 42.666667 0 0 0 42.368-37.674667L938.666667 640a42.666667 42.666667 0 0 0-42.666667-42.666667h-42.666667v-554.666666a128 128 0 0 0-120.490666-127.786667L725.333333-85.333333H298.666667a128 128 0 0 0-128 128V597.333333H128a42.666667 42.666667 0 0 0-42.368 37.674667L85.333333 640a42.666667 42.666667 0 0 0 42.666667 42.666667h170.666667V725.333333a128 128 0 0 0 120.490666 127.786667L426.666667 853.333333h170.666666z"  horiz-adv-x="1024" />

    
    <glyph glyph-name="zhengli" unicode="&#58996;" d="M512 762.965333L180.736 597.333333 512 431.701333 843.264 597.333333 512 762.965333z m19.072 85.845334l426.666667-213.333334a42.666667 42.666667 0 0 0 0-76.330666l-426.666667-213.333334a42.581333 42.581333 0 0 0-38.144 0l-426.666667 213.333334a42.666667 42.666667 0 0 0 0 76.330666l426.666667 213.333334a42.581333 42.581333 0 0 0 38.144 0z m388.522667-426.666667a42.666667 42.666667 0 0 0 38.186666-76.330667l-426.666666-213.333333a42.581333 42.581333 0 0 0-38.144 0l-426.666667 213.333333a42.666667 42.666667 0 0 0 38.186667 76.330667L512 218.368l407.594667 203.776z m0-213.333333a42.666667 42.666667 0 0 0 38.186666-76.330667l-426.666666-213.333333a42.581333 42.581333 0 0 0-38.144 0l-426.666667 213.333333a42.666667 42.666667 0 0 0 38.186667 76.330667L512 5.034667l407.594667 203.776z"  horiz-adv-x="1024" />

    
    <glyph glyph-name="tishi" unicode="&#58997;" d="M512 597.333333a42.666667 42.666667 0 0 0 42.666667-42.666666v-170.666667a42.666667 42.666667 0 0 0-85.333334 0V554.666667a42.666667 42.666667 0 0 0 42.666667 42.666666z m-30.165333-311.168a42.624 42.624 0 1 0 60.330666-60.330666 42.624 42.624 0 1 0-60.330666 60.330666zM512 768c-212.096 0-384-171.904-384-384s171.904-384 384-384 384 171.904 384 384-171.904 384-384 384z m0 85.333333c259.2 0 469.333333-210.133333 469.333333-469.333333s-210.133333-469.333333-469.333333-469.333333S42.666667 124.8 42.666667 384 252.8 853.333333 512 853.333333z"  horiz-adv-x="1024" />

    
    <glyph glyph-name="xinjianwenjianjia" unicode="&#58998;" d="M492.16 682.666667H853.333333a128 128 0 0 0 128-128v-469.333334a128 128 0 0 0-128-128H170.666667a128 128 0 0 0-128 128V682.666667a128 128 0 0 0 128 128h213.333333a42.666667 42.666667 0 0 0 35.498667-18.986667L492.16 682.666667z m-130.986667 42.666666H170.666667a42.666667 42.666667 0 0 1-42.666667-42.666666v-597.333334a42.666667 42.666667 0 0 1 42.666667-42.666666h682.666666a42.666667 42.666667 0 0 1 42.666667 42.666666V554.666667a42.666667 42.666667 0 0 1-42.666667 42.666666h-384a42.666667 42.666667 0 0 0-35.498666 18.986667L361.173333 725.333333zM512 475.008a42.666667 42.666667 0 0 0 42.666667-42.666667v-85.333333h85.333333a42.666667 42.666667 0 0 0 42.368-37.674667l0.298667-4.992a42.666667 42.666667 0 0 0-42.666667-42.666666h-85.333333v-85.333334a42.666667 42.666667 0 0 0-37.674667-42.368l-4.992-0.298666a42.666667 42.666667 0 0 0-42.666667 42.666666v85.333334H384a42.666667 42.666667 0 0 0-42.368 37.674666L341.333333 304.341333a42.666667 42.666667 0 0 0 42.666667 42.666667h85.333333v85.333333a42.666667 42.666667 0 0 0 37.674667 42.368L512 475.008z"  horiz-adv-x="1024" />

    
    <glyph glyph-name="xiaoxi" unicode="&#58999;" d="M622.72-21.418667a128 128 0 0 0-221.44 0A42.666667 42.666667 0 0 0 438.186667 42.666667h147.626666a42.666667 42.666667 0 0 0 36.906667-64.085334zM938.666667 128H85.333333c-56.874667 0-56.874667 85.333333 0 85.333333a85.333333 85.333333 0 0 1 85.333334 85.333334V512a341.333333 341.333333 0 0 0 682.666666 0v-213.333333a85.333333 85.333333 0 0 1 85.333334-85.333334c56.874667 0 56.874667-85.333333 0-85.333333z m-170.666667 170.666667V512A256 256 0 1 1 256 512v-213.333333c0-31.104-8.32-60.245333-22.826667-85.333334h557.653334A169.941333 169.941333 0 0 0 768 298.666667z"  horiz-adv-x="1024" />

    
    <glyph glyph-name="yidongdao" unicode="&#59000;" d="M512 853.333333h0.810667a35.029333 35.029333 0 0 0 5.546666-0.469333l2.218667-0.384c0.938667-0.170667 1.877333-0.426667 2.773333-0.64a26.368 26.368 0 0 0 1.962667-0.597333c0.853333-0.256 1.664-0.597333 2.517333-0.896a34.858667 34.858667 0 0 0 4.821334-2.304l1.536-0.896a40.874667 40.874667 0 0 0 7.936-6.272l-3.84 3.413333 0.384-0.298667 3.498666-3.114666 128-128a42.624 42.624 0 1 0-60.330666-60.330667L554.666667 707.669333V426.666667h280.96l-55.125334 55.168a42.666667 42.666667 0 0 0-3.541333 56.32l3.541333 4.010666a42.624 42.624 0 0 0 60.330667 0l128-128c1.194667-1.194667 2.346667-2.517333 3.413333-3.84l0.682667-0.896a32.085333 32.085333 0 0 0 2.133333-3.2c0.298667-0.512 0.64-1.024 0.896-1.578666a49.536 49.536 0 0 0 2.261334-4.821334l0.938666-2.56 0.597334-1.962666 0.682666-2.773334 0.384-2.218666A38.229333 38.229333 0 0 0 981.333333 384l-0.170666 3.669333a20.864 20.864 0 0 0 0.128-2.304L981.333333 384l-0.042666-1.450667-0.128-2.218666a53.461333 53.461333 0 0 0-0.298667-2.730667l-0.384-2.218667c-0.170667-0.938667-0.426667-1.877333-0.64-2.773333a26.368 26.368 0 0 0-0.597333-1.962667c-0.256-0.853333-0.597333-1.664-0.896-2.517333a34.858667 34.858667 0 0 0-2.304-4.821333l-0.896-1.536a40.874667 40.874667 0 0 0-6.272-7.936l3.413333 3.84-0.298667-0.384-3.114666-3.498667-128-128a42.624 42.624 0 1 0-60.330667 60.330667L835.626667 341.333333H554.666667v-280.96l55.168 55.125334a42.666667 42.666667 0 0 0 56.32 3.541333l4.010666-3.541333a42.624 42.624 0 0 0 0-60.330667l-128-128a48.725333 48.725333 0 0 0-3.84-3.413333l-0.896-0.682667a32.085333 32.085333 0 0 0-3.2-2.133333c-0.512-0.298667-1.024-0.64-1.578666-0.896a49.536 49.536 0 0 0-4.821334-2.261334l-2.56-0.938666-1.962666-0.597334a65.621333 65.621333 0 0 0-2.773334-0.682666l-2.218666-0.384A38.229333 38.229333 0 0 0 512-85.333333l3.626667 0.170666-2.218667-0.128L512-85.333333l-1.408 0.042666-2.261333 0.128a51.754667 51.754667 0 0 0-2.688 0.298667l-2.218667 0.384c-0.938667 0.170667-1.877333 0.426667-2.773333 0.64a26.368 26.368 0 0 0-1.962667 0.597333c-0.853333 0.256-1.664 0.597333-2.517333 0.896a34.858667 34.858667 0 0 0-4.821334 2.304l-1.536 0.896a40.874667 40.874667 0 0 0-7.936 6.272l3.84-3.413333a42.112 42.112 0 0 0-3.84 3.413333l-128 128a42.624 42.624 0 1 0 60.330667 60.330667L469.333333 60.373333V341.333333H188.330667l55.168-55.168a42.666667 42.666667 0 0 0 3.541333-56.32l-3.541333-4.010666a42.624 42.624 0 0 0-60.330667 0l-128 128-3.114667 3.498666-0.298666 0.384-0.682667 0.896a32.085333 32.085333 0 0 0-2.133333 3.2c-0.298667 0.512-0.64 1.024-0.896 1.578667a49.536 49.536 0 0 0-2.261334 4.821333l-0.938666 2.56-0.597334 1.962667a65.621333 65.621333 0 0 0-0.682666 2.773333l-0.384 2.218667A37.333333 37.333333 0 0 0 42.666667 384l0.170666-3.797333a66.261333 66.261333 0 0 0-0.170666 2.986666V384v0.810667c0 0.981333 0.085333 1.962667 0.170666 2.986666l0.298667 2.56 0.384 2.218667c0.170667 0.938667 0.426667 1.877333 0.64 2.773333a26.368 26.368 0 0 0 0.597333 1.962667c0.256 0.853333 0.597333 1.664 0.896 2.517333a34.858667 34.858667 0 0 0 2.304 4.821334l0.896 1.536a40.874667 40.874667 0 0 0 6.272 7.936l-3.413333-3.84a42.112 42.112 0 0 0 3.413333 3.84l128 128a42.624 42.624 0 1 0 60.330667-60.330667L188.330667 426.666667H469.333333V707.669333L414.165333 652.501333a42.666667 42.666667 0 0 0-56.32-3.541333l-4.010666 3.541333a42.624 42.624 0 0 0 0 60.330667l128 128 3.498666 3.114667 0.384 0.298666 0.896 0.682667a32.085333 32.085333 0 0 0 3.2 2.133333c0.512 0.298667 1.024 0.64 1.578667 0.896a49.536 49.536 0 0 0 4.821333 2.261334l2.56 0.938666 1.962667 0.597334 2.773333 0.682666 2.218667 0.384A37.333333 37.333333 0 0 0 512 853.333333l-3.797333-0.170666 3.029333 0.170666H512z"  horiz-adv-x="1024" />

    


  </font>
</defs>
</svg>
